<mxfile host="app.diagrams.net" agent="Mozilla/5.0 (Windows NT 10.0; Win64; x64) AppleWebKit/537.36 (KHTML, like Gecko) Chrome/135.0.0.0 Safari/537.36" version="26.2.14">
  <diagram name="Страница — 1" id="VPFjQSwD7sqrIGwiCZXX">
    <mxGraphModel dx="1042" dy="535" grid="1" gridSize="10" guides="1" tooltips="1" connect="1" arrows="1" fold="1" page="1" pageScale="1" pageWidth="850" pageHeight="1100" math="0" shadow="0">
      <root>
        <mxCell id="0" />
        <mxCell id="1" parent="0" />
        <mxCell id="rxKF1UO1qquSOK6yXCpm-3" style="edgeStyle=orthogonalEdgeStyle;rounded=0;orthogonalLoop=1;jettySize=auto;html=1;exitX=1;exitY=0.5;exitDx=0;exitDy=0;entryX=0;entryY=0.5;entryDx=0;entryDy=0;" edge="1" parent="1" source="rxKF1UO1qquSOK6yXCpm-1" target="rxKF1UO1qquSOK6yXCpm-2">
          <mxGeometry relative="1" as="geometry" />
        </mxCell>
        <mxCell id="rxKF1UO1qquSOK6yXCpm-18" style="edgeStyle=orthogonalEdgeStyle;rounded=0;orthogonalLoop=1;jettySize=auto;html=1;entryX=0;entryY=0.5;entryDx=0;entryDy=0;" edge="1" parent="1" source="rxKF1UO1qquSOK6yXCpm-1" target="rxKF1UO1qquSOK6yXCpm-17">
          <mxGeometry relative="1" as="geometry" />
        </mxCell>
        <mxCell id="rxKF1UO1qquSOK6yXCpm-1" value="Пользователь" style="rounded=0;whiteSpace=wrap;html=1;" vertex="1" parent="1">
          <mxGeometry x="390" y="230" width="110" height="30" as="geometry" />
        </mxCell>
        <mxCell id="rxKF1UO1qquSOK6yXCpm-6" style="edgeStyle=orthogonalEdgeStyle;rounded=0;orthogonalLoop=1;jettySize=auto;html=1;exitX=1;exitY=0.5;exitDx=0;exitDy=0;entryX=0;entryY=0.5;entryDx=0;entryDy=0;" edge="1" parent="1" source="rxKF1UO1qquSOK6yXCpm-2" target="rxKF1UO1qquSOK6yXCpm-4">
          <mxGeometry relative="1" as="geometry" />
        </mxCell>
        <mxCell id="rxKF1UO1qquSOK6yXCpm-7" style="edgeStyle=orthogonalEdgeStyle;rounded=0;orthogonalLoop=1;jettySize=auto;html=1;exitX=1;exitY=0.5;exitDx=0;exitDy=0;entryX=0;entryY=0.5;entryDx=0;entryDy=0;" edge="1" parent="1" source="rxKF1UO1qquSOK6yXCpm-2" target="rxKF1UO1qquSOK6yXCpm-5">
          <mxGeometry relative="1" as="geometry" />
        </mxCell>
        <mxCell id="rxKF1UO1qquSOK6yXCpm-2" value="Модуль авторизации" style="whiteSpace=wrap;html=1;" vertex="1" parent="1">
          <mxGeometry x="550" y="130" width="120" height="40" as="geometry" />
        </mxCell>
        <mxCell id="rxKF1UO1qquSOK6yXCpm-4" value="Эндпоинты для авторизованных&lt;div&gt;пользователей&lt;/div&gt;" style="whiteSpace=wrap;html=1;" vertex="1" parent="1">
          <mxGeometry x="740" y="60" width="110" height="50" as="geometry" />
        </mxCell>
        <mxCell id="rxKF1UO1qquSOK6yXCpm-5" value="Эндпоинты для администраторов" style="whiteSpace=wrap;html=1;" vertex="1" parent="1">
          <mxGeometry x="740" y="190" width="110" height="40" as="geometry" />
        </mxCell>
        <mxCell id="rxKF1UO1qquSOK6yXCpm-9" value="API" style="text;html=1;align=center;verticalAlign=middle;resizable=0;points=[];autosize=1;strokeColor=none;fillColor=none;" vertex="1" parent="1">
          <mxGeometry x="700" y="138" width="40" height="30" as="geometry" />
        </mxCell>
        <mxCell id="rxKF1UO1qquSOK6yXCpm-12" style="edgeStyle=orthogonalEdgeStyle;rounded=0;orthogonalLoop=1;jettySize=auto;html=1;entryX=0;entryY=0.5;entryDx=0;entryDy=0;" edge="1" parent="1" source="rxKF1UO1qquSOK6yXCpm-10" target="rxKF1UO1qquSOK6yXCpm-11">
          <mxGeometry relative="1" as="geometry" />
        </mxCell>
        <mxCell id="rxKF1UO1qquSOK6yXCpm-10" value="Обработка запросов" style="whiteSpace=wrap;html=1;" vertex="1" parent="1">
          <mxGeometry x="950" y="222.5" width="100" height="45" as="geometry" />
        </mxCell>
        <mxCell id="rxKF1UO1qquSOK6yXCpm-11" value="База данных" style="whiteSpace=wrap;html=1;" vertex="1" parent="1">
          <mxGeometry x="1110" y="220" width="90" height="50" as="geometry" />
        </mxCell>
        <mxCell id="rxKF1UO1qquSOK6yXCpm-14" value="" style="endArrow=none;html=1;rounded=0;entryX=1;entryY=0.5;entryDx=0;entryDy=0;edgeStyle=orthogonalEdgeStyle;" edge="1" parent="1" target="rxKF1UO1qquSOK6yXCpm-5">
          <mxGeometry width="50" height="50" relative="1" as="geometry">
            <mxPoint x="920" y="150" as="sourcePoint" />
            <mxPoint x="730" y="160" as="targetPoint" />
          </mxGeometry>
        </mxCell>
        <mxCell id="rxKF1UO1qquSOK6yXCpm-15" value="" style="endArrow=none;html=1;rounded=0;exitX=1;exitY=0.5;exitDx=0;exitDy=0;edgeStyle=elbowEdgeStyle;" edge="1" parent="1" source="rxKF1UO1qquSOK6yXCpm-4">
          <mxGeometry width="50" height="50" relative="1" as="geometry">
            <mxPoint x="680" y="210" as="sourcePoint" />
            <mxPoint x="920" y="150" as="targetPoint" />
          </mxGeometry>
        </mxCell>
        <mxCell id="rxKF1UO1qquSOK6yXCpm-16" value="" style="endArrow=classic;html=1;rounded=0;entryX=0;entryY=0.5;entryDx=0;entryDy=0;edgeStyle=orthogonalEdgeStyle;" edge="1" parent="1" target="rxKF1UO1qquSOK6yXCpm-10">
          <mxGeometry width="50" height="50" relative="1" as="geometry">
            <mxPoint x="920" y="150" as="sourcePoint" />
            <mxPoint x="730" y="160" as="targetPoint" />
          </mxGeometry>
        </mxCell>
        <mxCell id="rxKF1UO1qquSOK6yXCpm-19" style="edgeStyle=orthogonalEdgeStyle;rounded=0;orthogonalLoop=1;jettySize=auto;html=1;entryX=0;entryY=0.5;entryDx=0;entryDy=0;" edge="1" parent="1" source="rxKF1UO1qquSOK6yXCpm-17" target="rxKF1UO1qquSOK6yXCpm-10">
          <mxGeometry relative="1" as="geometry" />
        </mxCell>
        <mxCell id="rxKF1UO1qquSOK6yXCpm-17" value="Эндпоинты для неавторизованных пользователей" style="whiteSpace=wrap;html=1;" vertex="1" parent="1">
          <mxGeometry x="735" y="300" width="120" height="50" as="geometry" />
        </mxCell>
      </root>
    </mxGraphModel>
  </diagram>
</mxfile>
